# xmcd
# 
# Track frame offsets:
#     150
#     18570
#     43022
#     60610
#     72495
#     89855
#     104752
#     122803
#     145358
#     158040
#     170765
#     186500
#     206270
#     225710
#     246028
#     265763
#     275558
# 
# Disc length: 4209
# 
# Revision: 1
# Processed by: cddbd v1.5.2PL0 Copyright (c) Steve Scherf et al.
# Submitted via: fre:ac v1.0.17
# 
DISCID=09106f11
DTITLE=Mojo Club - Mojo Club Dancefloor Jazz Vol. 6 - Summer in the city
DYEAR=2008
DGENRE=Dancefloor Jazz
TTITLE0=Quincy Jones - Summer In The city
TTITLE1=Dieter Reith - My Kind of Sunshine
TTITLE2=Hearts of stone - Thank you for lettung me be myself again
TTITLE3=David Pike - Sitting on my nees
TTITLE4=Jorge Ben- Ponto de lanca africano
TTITLE5=James Last - Bolero 75
TTITLE6=Peter Herbolzheimer - Feed Back Brother
TTITLE7=Paul Mauriat - Etude in the form of rythm and blues
TTITLE8=Pierre Henry and Michel Colomber - Psyche rock
TTITLE9=The Marvelettes - Here I am baby
TTITLE10=George Shearing - Aquarius
TTITLE11=Chakachas - Junglle fever
TTITLE12=Wolfgang Dauner - Just bring it out
TTITLE13=The Equals - Funky like a train
TTITLE14=Seawind - Free
TTITLE15=Bossa Rio - Saiupa
TTITLE16=Baden Powell - Blues a volente
EXTD=YEAR: 2008
EXTT0=
EXTT1=
EXTT2=
EXTT3=
EXTT4=
EXTT5=
EXTT6=
EXTT7=
EXTT8=
EXTT9=
EXTT10=
EXTT11=
EXTT12=
EXTT13=
EXTT14=
EXTT15=
EXTT16=
PLAYORDER=
